<?xml version="1.0" encoding="UTF-8"?>
<svg id="Capa_1" data-name="Capa 1" xmlns="http://www.w3.org/2000/svg" xmlns:xlink="http://www.w3.org/1999/xlink" viewBox="0 0 1080 1080">
  <defs>
    <style>
      .cls-1 {
        fill: url(#Degradado_sin_nombre_33);
      }

      .cls-1, .cls-2 {
        stroke-width: 0px;
      }

      .cls-2 {
        fill: #fff;
      }
    </style>
    <linearGradient id="Degradado_sin_nombre_33" data-name="Degradado sin nombre 33" x1="71.53" y1="71.53" x2="1008.47" y2="1008.47" gradientUnits="userSpaceOnUse">
      <stop offset="0" stop-color="red"/>
      <stop offset="1" stop-color="#ffa53f"/>
    </linearGradient>
  </defs>
  <rect class="cls-1" x="40.6" y="40.6" width="998.81" height="998.81" rx="105.63" ry="105.63"/>
  <path class="cls-2" d="m945,539.68c0-223.68-181.32-405-405-405s-405,181.32-405,405c0,200.4,145.55,366.8,336.71,399.26,1.47-40.1,2.96-80.21,4.36-120.31.63-17.9,2.69-36.13.14-53.63-1.67-11.44-8.25-24.04-16.46-32.34-42.72-43.21-52.72-95.52-48.75-153.68,4.74-69.47,6.49-139.13,10.85-208.63.66-10.5,5.71-24.19,13.51-30.07,16.57-12.5,36.35-1.49,37.6,20.2,2.89,50.31,4.42,100.69,6.5,151.04.6,14.58.16,29.33,2.4,43.66.85,5.45,7.88,9.93,12.1,14.86,3.65-4.87,9.94-9.46,10.49-14.65,2.34-22.4,3.5-44.97,4.15-67.5,1.17-40.46,1.38-80.96,2.54-121.42.61-21.3,8.8-30.07,26.21-30.13,17.34-.06,25.91,8.62,26.6,29.57,1.92,58.36,3.21,116.74,4.76,175.12.14,5.3-1.21,11.32.86,15.72,2.44,5.2,7.86,9.01,11.98,13.43,3.77-4.55,10.48-8.88,10.82-13.68,2.27-31.75,2.87-63.62,4.61-95.42,1.88-34.39,4.59-68.73,6.6-103.11,1.06-18.19,13.55-24.16,28.27-24.14,16.21.02,27.45,8.52,28.58,26.64,2.82,44.97,5.87,89.93,8.8,134.41,0,40.98,1.5,81.47-.38,121.8-2.3,49.14-23.85,89.47-65.27,116.93-18.78,12.45-23.65,28.23-22.14,49.09,3.83,52.85,7.58,105.72,11.23,158.58,198.79-25.82,352.33-195.78,352.33-401.6Z"/>
</svg>